<?xml version="1.0" encoding="utf-8"?>
<!DOCTYPE svg PUBLIC "-//W3C//DTD SVG 1.0//EN" "http://www.w3.org/TR/2001/REC-SVG-20010904/DTD/svg10.dtd">
<svg version="1.0" xmlns="http://www.w3.org/2000/svg" width="1000px" height="300px" viewBox="0 0 1011 303" preserveAspectRatio="xMidYMid meet">
 <g fill="#000000">
  <path d="M988.70 289.35 c-5 -2.30 -7.45 -3.40 -10.45 -4.60 -1.10 -0.45 -3.65 -1.60 -5.65 -2.55 -2.05 -0.95 -3.80 -1.70 -3.90 -1.70 -0.10 0 -1.65 -0.65 -3.45 -1.50 -1.80 -0.80 -3.40 -1.50 -3.50 -1.50 -0.10 0 -1.65 -0.65 -3.35 -1.45 -1.75 -0.75 -5.60 -2.50 -8.65 -3.80 -3 -1.30 -6.40 -2.75 -7.50 -3.25 -1.10 -0.50 -4.70 -2.05 -8 -3.50 -3.30 -1.45 -7.20 -3.15 -8.65 -3.80 -1.45 -0.65 -2.75 -1.20 -2.90 -1.20 -0.10 0 -2.15 -0.90 -4.50 -2 -2.35 -1.10 -4.40 -2 -4.50 -2 -0.10 0 -1.65 -0.65 -3.45 -1.50 -1.80 -0.80 -3.40 -1.50 -3.50 -1.50 -0.10 0 -1.75 -0.70 -3.60 -1.55 -1.90 -0.85 -5.75 -2.55 -8.65 -3.80 -2.90 -1.25 -6.75 -2.95 -8.60 -3.80 l-3.40 -1.50 0 -90.30 0 -90.35 3.40 -1.45 c1.85 -0.75 4.50 -1.90 5.85 -2.55 1.40 -0.60 5 -2.15 8 -3.45 3.05 -1.30 6.90 -3.05 8.65 -3.80 1.70 -0.80 3.25 -1.45 3.35 -1.45 0.10 0 1.70 -0.65 3.50 -1.50 1.80 -0.80 3.35 -1.50 3.45 -1.50 0.10 0 2.15 -0.90 4.50 -2 2.35 -1.10 4.40 -2 4.50 -2 0.15 0 1.45 -0.55 2.90 -1.20 1.45 -0.65 5.35 -2.35 8.65 -3.80 3.30 -1.45 6.90 -3 8 -3.50 1.10 -0.50 4.50 -1.95 7.50 -3.25 3.05 -1.30 6.90 -3.05 8.65 -3.80 1.70 -0.80 3.25 -1.45 3.35 -1.45 0.10 0 1.70 -0.65 3.50 -1.50 1.80 -0.80 3.35 -1.50 3.45 -1.50 0.10 0 2.15 -0.90 4.50 -2 2.35 -1.10 4.40 -2 4.50 -2 0.15 0 1.45 -0.55 2.90 -1.20 6.30 -2.85 7.60 -3.30 9.20 -3.30 l1.70 0 0 138.75 0 138.75 -1.60 -0.05 c-0.90 0 -3.70 -1 -6.20 -2.10z m-48.20 -62.10 c10.85 -1.05 16.60 -2.55 23.55 -6 7.50 -3.75 12.45 -8.90 14.90 -15.50 1.60 -4.25 1.95 -11.30 0.80 -15.15 -1.75 -5.75 -4.75 -9.60 -9.10 -11.80 -6.30 -3.15 -10.65 -3.80 -25.35 -3.80 -9.40 0 -15.80 -0.65 -15.80 -1.60 0 -0.20 -0.40 -0.40 -0.90 -0.40 -1.25 0 -2.10 -2 -2.10 -4.80 0 -4.15 -0.05 -4.15 8.60 -4.10 8.25 0.05 13.55 -0.60 17.90 -2.20 1.50 -0.55 3.20 -1.10 3.75 -1.25 1.80 -0.55 6.15 -3.55 8.65 -6 5.40 -5.25 8.45 -15.60 6.30 -21.15 -0.45 -1.25 -0.90 -3.45 -0.90 -4.95 -0.05 -2.50 0.05 -2.75 1.20 -3.10 0.70 -0.20 2.50 -0.85 4 -1.45 1.50 -0.60 3.20 -1.20 3.75 -1.35 2.05 -0.60 2.25 -1.10 2.25 -6.45 l0 -5.20 -14.35 0 c-8.30 0 -17.50 -0.30 -21.65 -0.70 -8.50 -0.80 -13.30 -0.65 -19.05 0.65 -12.25 2.75 -19.25 8.60 -22.15 18.50 -1.15 4 -1.05 11.05 0.25 15.20 1.25 3.95 4.10 8.55 6.50 10.50 0.95 0.75 2.05 1.65 2.40 2 0.40 0.30 1.20 0.70 1.75 0.85 0.80 0.20 1.10 0.75 1.20 2.10 0.15 1.60 -0.10 2 -1.70 3.25 -3.45 2.60 -6.80 5.85 -7.55 7.30 -1.20 2.30 -1 5.30 0.45 7.65 1.75 2.75 4.40 5.50 5.80 5.90 0.90 0.30 1.10 0.70 1.10 2.55 0 2.20 -0.05 2.20 -2.10 2.75 -3.15 0.75 -7.90 3.25 -9.90 5.20 -2.30 2.25 -2.70 2.75 -4.05 5.35 -1.70 3.25 -1.60 9.15 0.25 12.95 1.70 3.55 3.35 5.90 4.30 6.25 0.40 0.10 1.35 0.80 2.05 1.45 3.95 3.65 15.05 6.70 26.45 7.20 0.70 0.05 4.50 -0.25 8.50 -0.65z"/>
  <path d="M929 212.45 c-8.15 -1.50 -11 -4.30 -10.30 -10.15 0.45 -3.45 1.60 -4.90 5.20 -6.55 l2.85 -1.30 12.75 0.20 c13.85 0.20 15.75 0.50 18.15 2.95 2.15 2.20 1.80 7 -0.80 9.85 -1.45 1.55 -5.80 3.50 -9.85 4.35 -3.90 0.85 -14.85 1.25 -18 0.65z"/>
  <path d="M934.75 150.85 c-2.95 -0.85 -4.20 -1.95 -5.65 -4.95 -1.15 -2.40 -1.25 -3.20 -1.25 -8.90 0 -5.35 0.15 -6.60 1.10 -8.75 1.55 -3.55 3.55 -5.10 7.10 -5.50 4.40 -0.50 6.70 0.05 8.95 2.15 2.50 2.45 3.20 4.95 3.15 12.15 0 8.85 -1.80 12.50 -6.95 13.90 -2.35 0.65 -3.80 0.65 -6.45 -0.10z"/>
  <path d="M24.60 230.45 c-2 -0.25 -4.55 -0.65 -5.65 -0.95 l-1.95 -0.55 -0.10 -10.70 c-0.05 -5.90 -0.10 -11.60 -0.10 -12.60 l-0.05 -1.90 2.25 0.05 c1.25 0.05 3.65 0.25 5.35 0.45 2.60 0.30 3.40 0.20 5.25 -0.70 1.80 -0.85 2.35 -1.50 3.40 -3.90 l1.25 -2.90 0 -44.40 0 -44.35 15.90 0 15.85 0 0.10 45.40 c0.05 24.95 0.05 47.25 0 49.60 -0.30 9.15 -4.25 17.50 -10.40 21.80 -2.90 2.05 -7.45 4.10 -11.10 4.90 -4.30 0.95 -14.75 1.35 -20 0.75z"/>
  <path d="M237.30 195.45 c-4.55 -0.65 -10.05 -2.30 -13.45 -4 -1.70 -0.90 -3.20 -1.70 -3.35 -1.90 -0.15 -0.20 -1.25 -1.10 -2.50 -2.05 -6.55 -5 -11.35 -12.60 -13.50 -21.45 -1 -4.10 -1.15 -6.10 -1.20 -15 -0.05 -9.15 0.10 -10.80 1.10 -14.80 0.60 -2.45 1.45 -5.10 1.85 -5.95 0.40 -0.80 0.75 -1.75 0.75 -2.15 0 -0.35 0.20 -0.65 0.45 -0.65 0.25 0 0.55 -0.65 0.70 -1.40 0.15 -0.75 0.95 -2.15 1.80 -3.10 0.85 -0.95 1.55 -1.90 1.55 -2.05 0 -0.60 4.50 -4.95 7.15 -6.90 6.45 -4.80 13.35 -6.90 24.45 -7.40 10.60 -0.45 17.90 0.85 24.90 4.40 10.20 5.25 16.50 13.35 20 25.70 0.85 3.05 1.45 15.20 1 20.65 -0.20 2.65 -0.90 6.85 -1.50 9.30 -1.05 4.35 -4.75 12.60 -6.55 14.55 -5.45 6 -7.75 7.85 -12.45 10.25 -7.65 3.80 -20.75 5.45 -31.20 3.95z m13.40 -25.60 c2.15 -1.25 3.85 -4.15 5.05 -8.70 0.90 -3.40 1.10 -17.05 0.25 -18.60 -0.25 -0.55 -0.50 -1.45 -0.50 -2.05 0 -1.55 -2.20 -5.55 -3.80 -7 -3.05 -2.70 -7.60 -2.85 -10.85 -0.35 -6.15 4.70 -7.65 22.35 -2.70 32.35 1.40 2.90 1.90 3.40 4.35 4.65 3.10 1.60 4.90 1.50 8.20 -0.30z"/>
  <path d="M493.25 195.50 c-3.60 -0.40 -11.75 -2.55 -11.75 -3.10 0 -0.25 -0.45 -0.40 -1 -0.40 -0.55 0 -1 -0.20 -1 -0.40 0 -0.20 -1.05 -0.90 -2.30 -1.50 -2.95 -1.45 -7.55 -5.60 -10.75 -9.70 -1.75 -2.20 -5.50 -9.70 -6 -11.90 -0.20 -0.95 -0.70 -3.20 -1.10 -5 -1.75 -7.80 -1.45 -19.65 0.70 -28.30 1.10 -4.40 5.05 -13.20 5.90 -13.20 0.30 0 0.95 -0.85 1.55 -1.85 0.60 -1.05 2 -2.60 3.15 -3.50 1.15 -0.85 2.60 -2.05 3.25 -2.65 1.30 -1.25 10.25 -5.50 11.50 -5.50 0.45 0 1.85 -0.35 3.10 -0.80 1.50 -0.55 4.95 -0.85 10.50 -1.05 8.75 -0.30 14.25 0.35 19.45 2.35 1.25 0.50 3.10 1.20 4.05 1.60 0.95 0.35 2.05 0.90 2.40 1.25 0.30 0.30 1.05 0.75 1.60 0.90 0.55 0.15 1 0.50 1 0.75 0 0.25 0.45 0.55 0.95 0.75 0.55 0.15 2.55 1.95 4.50 3.95 3.60 3.65 6.55 7.95 7.85 11.45 0.40 1 1 2.70 1.40 3.75 0.40 1.05 1.10 3.80 1.60 6.10 1.20 6 0.80 20.40 -0.75 26.75 -1.25 5 -4.35 12.05 -6.30 14.15 -0.70 0.75 -1.25 1.50 -1.25 1.70 0 1.35 -7.20 7 -12 9.40 -7.55 3.80 -18.95 5.30 -30.25 4z m11 -24.80 c3.05 -1.25 5 -3.65 6.15 -7.55 1.55 -5.10 2.35 -12.45 1.65 -15.60 -0.30 -1.45 -0.55 -3.30 -0.55 -4.20 0 -2.15 -1.65 -6.55 -3.20 -8.55 -1.30 -1.75 -5.05 -3.80 -6.85 -3.80 -2.05 0 -6.35 2.50 -7.40 4.25 -2.80 4.75 -4 13 -3.05 20.65 1.10 8.70 3.10 12.80 7.20 14.65 2.50 1.15 3.65 1.15 6.05 0.15z"/>
  <path d="M581.75 195.70 c-10.65 -1.70 -18.15 -7.60 -21.85 -17.25 l-1.60 -4.20 -0.20 -33.10 -0.15 -33.15 15.90 0 15.90 0 -0.15 24.10 c-0.20 25 0 28.25 1.90 32.50 2.70 6.15 8.70 7.15 13.70 2.25 4.50 -4.45 5.30 -10.25 5.30 -37.70 l0 -21.15 16.05 0 16.10 0 -0.35 2.65 c-0.15 1.40 -0.30 20.90 -0.30 43.25 l0 40.60 -12.35 -0.10 -12.40 -0.15 -1.45 -4.35 -1.45 -4.35 -2.20 2.10 c-2.90 2.85 -7.50 5.55 -11.55 6.85 -2.60 0.85 -4.90 1.10 -10.35 1.25 -3.85 0.10 -7.65 0.05 -8.50 -0.05z"/>
  <path d="M671.75 195.20 c-6.95 -0.95 -14.55 -2.85 -15.55 -3.85 -0.20 -0.20 -0.40 -6.10 -0.40 -13.10 l-0.05 -12.75 1.65 0 c0.90 0 2.90 0.45 4.50 1.05 9.05 3.25 16.80 5 23.10 5.10 6.90 0.15 9.85 -1.40 7.50 -3.90 -0.95 -1 -3.10 -2.10 -10.75 -5.35 -1.90 -0.85 -4.90 -2.15 -6.65 -2.95 -1.70 -0.80 -3.45 -1.45 -3.85 -1.45 -0.40 0 -0.75 -0.20 -0.75 -0.40 0 -0.20 -1 -0.90 -2.25 -1.50 -3.50 -1.70 -8.35 -6.65 -10.10 -10.25 -2.30 -4.75 -2.80 -7.70 -2.55 -14.30 0.30 -5.95 1.70 -11.30 3.20 -12.20 0.40 -0.20 0.70 -0.75 0.70 -1.15 0 -1.90 8.25 -7.70 12.75 -9.05 7.25 -2.15 8.90 -2.35 19 -2.35 7.65 0 10.90 0.20 13.75 0.85 4.80 1.05 10.25 2.60 12.65 3.60 6.10 2.50 5.85 2.30 5.85 4.05 0 0.95 -0.55 2.85 -1.20 4.30 -0.65 1.45 -1.65 3.90 -2.30 5.40 -0.65 1.50 -1.80 4.15 -2.55 5.90 -0.80 1.75 -1.45 3.50 -1.45 3.90 0 1.15 -2.75 0.70 -8 -1.30 -9.60 -3.60 -14.75 -4.70 -18.60 -4 -3.80 0.70 -3.70 2.25 0.25 4.20 4.45 2.15 9.35 4.30 9.85 4.30 0.25 0 1.45 0.45 2.60 0.95 1.20 0.55 3.80 1.70 5.80 2.60 1.95 0.90 3.60 1.80 3.60 1.95 0 0.20 0.55 0.60 1.25 0.90 2.75 1.25 6.90 5.60 8.70 9.10 2.10 4.10 2.75 7.50 2.70 14.30 -0.05 4.90 -0.25 6.75 -1.20 9.75 -0.65 2.05 -1.50 4 -1.80 4.35 -0.35 0.35 -0.65 0.85 -0.65 1.10 0 0.95 -4.80 5.60 -7.65 7.40 -6.55 4.05 -14.40 5.60 -27.90 5.50 -4.80 -0.05 -10.70 -0.35 -13.20 -0.70z"/>
  <path d="M81.50 153.90 c0 -22.35 -0.15 -41.85 -0.30 -43.25 l-0.35 -2.65 16.10 0 16.05 0 0 43.25 0 43.25 -15.75 0 -15.75 0 0 -40.60z"/>
  <path d="M127.50 151.25 l0 -43.25 12.20 0 12.15 0 1.95 5.75 c1.05 3.15 2.05 5.75 2.20 5.75 0.15 0 0.95 -1 1.75 -2.25 0.85 -1.20 1.60 -2.25 1.75 -2.25 0.15 0 1.30 -0.90 2.50 -2.05 5.20 -4.70 12.20 -6.85 20.75 -6.30 6.70 0.45 6.75 0.50 6.75 3.55 0.05 2.65 -1.95 25.50 -2.30 26.75 -0.20 0.55 -1 0.60 -4.35 0.25 -2.25 -0.20 -5.25 -0.40 -6.65 -0.40 -3.05 0.05 -8.70 1.15 -8.70 1.75 0 0.25 -0.35 0.45 -0.75 0.45 -0.45 0 -1.55 0.70 -2.55 1.60 -4.80 4.40 -5.20 6.90 -5.20 33.15 l0 20.75 -15.75 0 -15.75 0 0 -43.25z"/>
  <path d="M360.50 135.75 l0 -58.75 15.90 0 15.90 0 -0.15 9.90 c-0.10 5.40 -0.25 14.05 -0.30 19.20 l-0.15 9.40 2.30 -2.45 c2.55 -2.70 4.10 -3.65 8.65 -5.15 2.60 -0.85 4.40 -1.05 10.85 -1.10 5 -0.05 8.75 0.20 10.50 0.65 3.20 0.75 9.50 3.50 9.50 4.10 0 0.25 0.75 0.95 1.70 1.55 2.35 1.60 5.60 5.90 6.85 9 2.75 6.80 2.65 5.30 2.80 40.05 l0.20 32.35 -16 0 -16 0 -0.20 -26.35 c-0.20 -28.10 -0.15 -27.90 -2.70 -32.15 -2.10 -3.60 -6.25 -4.45 -10.25 -2.10 -6.60 3.80 -8.05 11.65 -7.85 42.10 l0.15 18.25 -15.85 0.15 -15.85 0.10 0 -58.75z"/>
  <path d="M738.50 194.40 c0 -0.10 -0.05 -19.55 -0.15 -43.30 l-0.10 -43.10 15.90 0 15.85 0 0 43.25 0 43.25 -15.75 0 c-8.65 0 -15.75 -0.05 -15.75 -0.10z"/>
  <path d="M784.50 194.25 c0 -0.15 0 -19.35 0 -42.75 0 -23.35 0 -42.70 0 -43 0 -0.30 4.45 -0.50 12.40 -0.50 l12.35 0 1.45 4.55 1.40 4.55 2.60 -2.45 c4.55 -4.35 5.65 -4.95 12.80 -7.05 4.15 -1.20 17.70 -1.15 21.75 0.10 10.10 3.10 15.35 8.70 18.80 20.05 0.40 1.45 0.65 10.95 0.80 34.40 l0.25 32.35 -16.05 0 -16.05 0 0 -24.10 c0 -13.30 -0.25 -25.70 -0.50 -27.55 -1.20 -8.40 -5.75 -12.05 -11.80 -9.55 -2.55 1.05 -4 2.50 -5.40 5.20 -2.70 5.40 -3.40 12.90 -3.25 36.25 l0.10 19.50 -15.80 0.15 c-8.70 0.05 -15.85 0 -15.85 -0.15z"/>
  <path d="M302.50 152.50 l0 -13 22.25 0 22.25 0 0 13 0 13 -22.25 0 -22.25 0 0 -13z"/>
  <path d="M42.95 102.25 c-2.80 -0.75 -3.35 -1.05 -5.75 -3.25 -2.65 -2.40 -3.45 -5.05 -3.45 -11.25 0.05 -5.30 0.45 -6.70 2.90 -9.35 2.65 -2.85 5 -3.60 12.50 -3.80 5.45 -0.15 7.35 -0.05 9.40 0.60 6.45 2.10 8.60 5.35 8.65 13.05 0.10 7.55 -1.55 10.60 -6.90 13.05 -2.55 1.15 -3.60 1.35 -8.95 1.45 -3.70 0.10 -7 -0.10 -8.40 -0.50z"/>
  <path d="M90.50 102.50 c-4.40 -0.85 -8.15 -4.05 -9.30 -7.90 -0.90 -2.85 -0.85 -9.75 0 -12.25 1.05 -2.85 3 -5.10 5.65 -6.40 2.25 -1.10 3 -1.20 10.40 -1.20 7.75 0 8.10 0.05 10.55 1.35 3.05 1.60 5 3.75 5.65 6.30 1.75 6.90 0.80 13.40 -2.45 16.65 -1 1 -3.60 2.40 -5.70 3.05 -1.90 0.60 -12.40 0.90 -14.80 0.40z"/>
  <path d="M747.50 102.55 c-4.05 -0.85 -8.50 -4.35 -9.35 -7.45 -0.25 -0.75 -0.40 -3.80 -0.40 -6.85 0 -4.65 0.15 -5.80 1.05 -7.50 2.65 -4.90 5.60 -6 15.95 -6 7.15 0 7.60 0.05 10 1.35 4.90 2.55 6.25 5.35 6.25 12.65 0 4.85 -0.80 7.65 -2.85 10.05 -1.20 1.45 -4.30 2.95 -7.55 3.65 -2.90 0.60 -10.30 0.65 -13.10 0.10z"/>
 </g>
</svg>